<svg xmlns="http://www.w3.org/2000/svg" viewBox="0 0 960 400">
  <defs>
    <linearGradient id="rbg" x1="0" y1="0" x2="0" y2="1">
      <stop offset="0%" stop-color="#0f172a"/>
      <stop offset="100%" stop-color="#0c1425"/>
    </linearGradient>
  </defs>
  <rect width="960" height="400" fill="url(#rbg)"/>

  <!-- Title -->
  <text x="480" y="35" text-anchor="middle" font-family="sans-serif" font-size="20" font-weight="700" fill="#f1f5f9">Smart Routing Engine</text>
  <text x="480" y="55" text-anchor="middle" font-family="sans-serif" font-size="12" fill="#64748b">Content analysis → diagram type → best plugin → output</text>

  <!-- Column headers -->
  <text x="100" y="80" text-anchor="middle" font-family="sans-serif" font-size="9" font-weight="600" fill="#94a3b8" letter-spacing="1">KNOWLEDGE SOURCE</text>
  <text x="340" y="80" text-anchor="middle" font-family="sans-serif" font-size="9" font-weight="600" fill="#94a3b8" letter-spacing="1">DIAGRAM TYPE</text>
  <text x="580" y="80" text-anchor="middle" font-family="sans-serif" font-size="9" font-weight="600" fill="#94a3b8" letter-spacing="1">PLUGIN</text>
  <text x="810" y="80" text-anchor="middle" font-family="sans-serif" font-size="9" font-weight="600" fill="#94a3b8" letter-spacing="1">OUTPUT</text>

  <!-- Separator lines -->
  <line x1="210" y1="88" x2="210" y2="340" stroke="#64748b" stroke-width="0.5" opacity="0.2"/>
  <line x1="460" y1="88" x2="460" y2="340" stroke="#64748b" stroke-width="0.5" opacity="0.2"/>
  <line x1="700" y1="88" x2="700" y2="340" stroke="#64748b" stroke-width="0.5" opacity="0.2"/>

  <!-- Source pills -->
  <rect x="15" y="95" width="170" height="32" rx="16" fill="#60a5fa" fill-opacity="0.1" stroke="#60a5fa" stroke-width="1"/>
  <text x="100" y="115" text-anchor="middle" font-family="sans-serif" font-size="11" fill="#60a5fa">系统设计文档</text>

  <rect x="15" y="140" width="170" height="32" rx="16" fill="#60a5fa" fill-opacity="0.1" stroke="#60a5fa" stroke-width="1"/>
  <text x="100" y="160" text-anchor="middle" font-family="sans-serif" font-size="11" fill="#60a5fa">API 规范 / 调用链</text>

  <rect x="15" y="185" width="170" height="32" rx="16" fill="#34d399" fill-opacity="0.1" stroke="#34d399" stroke-width="1"/>
  <text x="100" y="205" text-anchor="middle" font-family="sans-serif" font-size="11" fill="#34d399">业务规则 / 需求</text>

  <rect x="15" y="230" width="170" height="32" rx="16" fill="#34d399" fill-opacity="0.1" stroke="#34d399" stroke-width="1"/>
  <text x="100" y="250" text-anchor="middle" font-family="sans-serif" font-size="11" fill="#34d399">代码 (类/接口)</text>

  <rect x="15" y="275" width="170" height="32" rx="16" fill="#fb7185" fill-opacity="0.1" stroke="#fb7185" stroke-width="1"/>
  <text x="100" y="295" text-anchor="middle" font-family="sans-serif" font-size="11" fill="#fb7185">科普文章 / 博客</text>

  <rect x="15" y="320" width="170" height="32" rx="16" fill="#fb7185" fill-opacity="0.1" stroke="#fb7185" stroke-width="1"/>
  <text x="100" y="340" text-anchor="middle" font-family="sans-serif" font-size="11" fill="#fb7185">概念解释 / 教程</text>

  <!-- Diagram type pills -->
  <rect x="260" y="95" width="140" height="32" rx="16" fill="#60a5fa" fill-opacity="0.1" stroke="#60a5fa" stroke-width="1"/>
  <text x="330" y="115" text-anchor="middle" font-family="sans-serif" font-size="11" fill="#60a5fa">架构图</text>

  <rect x="260" y="140" width="140" height="32" rx="16" fill="#60a5fa" fill-opacity="0.1" stroke="#60a5fa" stroke-width="1"/>
  <text x="330" y="160" text-anchor="middle" font-family="sans-serif" font-size="11" fill="#60a5fa">时序图</text>

  <rect x="260" y="185" width="140" height="32" rx="16" fill="#34d399" fill-opacity="0.1" stroke="#34d399" stroke-width="1"/>
  <text x="330" y="205" text-anchor="middle" font-family="sans-serif" font-size="11" fill="#34d399">流程图</text>

  <rect x="260" y="230" width="140" height="32" rx="16" fill="#34d399" fill-opacity="0.1" stroke="#34d399" stroke-width="1"/>
  <text x="330" y="250" text-anchor="middle" font-family="sans-serif" font-size="11" fill="#34d399">类图 / ER图</text>

  <rect x="260" y="275" width="140" height="32" rx="16" fill="#fb7185" fill-opacity="0.1" stroke="#fb7185" stroke-width="1"/>
  <text x="330" y="295" text-anchor="middle" font-family="sans-serif" font-size="11" fill="#fb7185">文章配图</text>

  <rect x="260" y="320" width="140" height="32" rx="16" fill="#fb7185" fill-opacity="0.1" stroke="#fb7185" stroke-width="1"/>
  <text x="330" y="340" text-anchor="middle" font-family="sans-serif" font-size="11" fill="#fb7185">概念可视化</text>

  <!-- Source → Diagram lines -->
  <line x1="185" y1="111" x2="260" y2="111" stroke="#60a5fa" stroke-width="1.2" opacity="0.5"/>
  <circle cx="260" cy="111" r="2.5" fill="#60a5fa"/>
  <line x1="185" y1="156" x2="260" y2="156" stroke="#60a5fa" stroke-width="1.2" opacity="0.5"/>
  <circle cx="260" cy="156" r="2.5" fill="#60a5fa"/>
  <line x1="185" y1="201" x2="260" y2="201" stroke="#34d399" stroke-width="1.2" opacity="0.5"/>
  <circle cx="260" cy="201" r="2.5" fill="#34d399"/>
  <line x1="185" y1="246" x2="260" y2="246" stroke="#34d399" stroke-width="1.2" opacity="0.5"/>
  <circle cx="260" cy="246" r="2.5" fill="#34d399"/>
  <line x1="185" y1="291" x2="260" y2="291" stroke="#fb7185" stroke-width="1.2" opacity="0.5"/>
  <circle cx="260" cy="291" r="2.5" fill="#fb7185"/>
  <line x1="185" y1="336" x2="260" y2="336" stroke="#fb7185" stroke-width="1.2" opacity="0.5"/>
  <circle cx="260" cy="336" r="2.5" fill="#fb7185"/>

  <!-- Plugin boxes -->
  <rect x="490" y="100" width="170" height="50" rx="10" fill="#1e293b" stroke="#fbbf24" stroke-width="1.5"/>
  <text x="575" y="122" text-anchor="middle" font-family="sans-serif" font-size="13" font-weight="600" fill="#fbbf24">drawio</text>
  <text x="575" y="140" text-anchor="middle" font-family="sans-serif" font-size="9" fill="#64748b">XML 专业图表</text>

  <rect x="490" y="165" width="170" height="50" rx="10" fill="#1e293b" stroke="#a78bfa" stroke-width="1.5"/>
  <text x="575" y="187" text-anchor="middle" font-family="sans-serif" font-size="13" font-weight="600" fill="#a78bfa">excalidraw</text>
  <text x="575" y="205" text-anchor="middle" font-family="sans-serif" font-size="9" fill="#64748b">JSON 手绘风格</text>

  <rect x="490" y="230" width="170" height="50" rx="10" fill="#1e293b" stroke="#34d399" stroke-width="1.5"/>
  <text x="575" y="252" text-anchor="middle" font-family="sans-serif" font-size="13" font-weight="600" fill="#34d399">mermaid</text>
  <text x="575" y="270" text-anchor="middle" font-family="sans-serif" font-size="9" fill="#64748b">文本图表</text>

  <rect x="490" y="295" width="170" height="50" rx="10" fill="#1e293b" stroke="#fb7185" stroke-width="1.5"/>
  <text x="575" y="317" text-anchor="middle" font-family="sans-serif" font-size="13" font-weight="600" fill="#fb7185">ian-illustrator</text>
  <text x="575" y="335" text-anchor="middle" font-family="sans-serif" font-size="9" fill="#64748b">小黑 IP 配图</text>

  <!-- Diagram → Plugin lines -->
  <line x1="400" y1="111" x2="490" y2="125" stroke="#fbbf24" stroke-width="1.1" opacity="0.5"/>
  <line x1="400" y1="111" x2="490" y2="190" stroke="#a78bfa" stroke-width="1.1" opacity="0.4"/>
  <line x1="400" y1="156" x2="490" y2="255" stroke="#34d399" stroke-width="1.1" opacity="0.5"/>
  <line x1="400" y1="201" x2="490" y2="125" stroke="#fbbf24" stroke-width="1.1" opacity="0.4"/>
  <line x1="400" y1="201" x2="490" y2="255" stroke="#34d399" stroke-width="1.1" opacity="0.4"/>
  <line x1="400" y1="246" x2="490" y2="125" stroke="#fbbf24" stroke-width="1.1" opacity="0.4"/>
  <line x1="400" y1="291" x2="490" y2="320" stroke="#fb7185" stroke-width="1.1" opacity="0.5"/>
  <line x1="400" y1="336" x2="490" y2="320" stroke="#fb7185" stroke-width="1.1" opacity="0.5"/>

  <!-- Output pills -->
  <rect x="720" y="106" width="155" height="36" rx="8" fill="#1e293b" stroke="#fbbf24" stroke-width="1"/>
  <text x="797" y="128" text-anchor="middle" font-family="sans-serif" font-size="10" fill="#fbbf24">.drawio → PNG/SVG</text>

  <rect x="720" y="172" width="155" height="36" rx="8" fill="#1e293b" stroke="#a78bfa" stroke-width="1"/>
  <text x="797" y="194" text-anchor="middle" font-family="sans-serif" font-size="10" fill="#a78bfa">.excalidraw</text>

  <rect x="720" y="237" width="155" height="36" rx="8" fill="#1e293b" stroke="#34d399" stroke-width="1"/>
  <text x="797" y="259" text-anchor="middle" font-family="sans-serif" font-size="10" fill="#34d399">Mermaid code</text>

  <rect x="720" y="302" width="155" height="36" rx="8" fill="#1e293b" stroke="#fb7185" stroke-width="1"/>
  <text x="797" y="324" text-anchor="middle" font-family="sans-serif" font-size="10" fill="#fb7185">.png 手绘图</text>

  <!-- Plugin → Output lines -->
  <line x1="660" y1="125" x2="720" y2="124" stroke="#fbbf24" stroke-width="1.2" opacity="0.6"/>
  <circle cx="720" cy="124" r="2.5" fill="#fbbf24"/>
  <line x1="660" y1="190" x2="720" y2="190" stroke="#a78bfa" stroke-width="1.2" opacity="0.6"/>
  <circle cx="720" cy="190" r="2.5" fill="#a78bfa"/>
  <line x1="660" y1="255" x2="720" y2="255" stroke="#34d399" stroke-width="1.2" opacity="0.6"/>
  <circle cx="720" cy="255" r="2.5" fill="#34d399"/>
  <line x1="660" y1="320" x2="720" y2="320" stroke="#fb7185" stroke-width="1.2" opacity="0.6"/>
  <circle cx="720" cy="320" r="2.5" fill="#fb7185"/>

  <!-- Legend -->
  <rect x="230" y="370" width="10" height="10" rx="2" fill="#34d399" opacity="0.7"/>
  <text x="245" y="379" font-family="sans-serif" font-size="9" fill="#64748b">Strong mapping (auto-execute)</text>
  <rect x="420" y="370" width="10" height="10" rx="2" fill="#fbbf24" opacity="0.7"/>
  <text x="435" y="379" font-family="sans-serif" font-size="9" fill="#64748b">Multiple options (recommend + confirm)</text>
  <rect x="660" y="370" width="10" height="10" rx="2" fill="#fb7185" opacity="0.7"/>
  <text x="675" y="379" font-family="sans-serif" font-size="9" fill="#64748b">Article content (illustration)</text>
</svg>
